<svg version="1.1" id="PSF" xmlns="http://www.w3.org/2000/svg" xmlns:xlink="http://www.w3.org/1999/xlink" x="0px" y="0px"
	 width="36px" height="27.8px" viewBox="0 0 36 27.8" style="enable-background:new 0 0 36 27.8;" xml:space="preserve">
	<path style="fill:#313131;" d="M13.5,0v25.9l5.9,1.9V6c0-1,0.5-1.7,1.2-1.5l0,0c1,0.3,1.1,1.2,1.1,2.2v8.7
											c3.7,1.8,6.5,0,6.5-4.7c0-4.8-1.7-6.9-6.6-8.6C19.6,1.6,16,0.5,13.5,0z"/>
	<path style="fill:#313131;" d="M20.4,24l9.4-3.4c1.1-0.4,1.2-0.9,0.4-1.2c-0.9-0.3-2.4-0.2-3.5,0.2l-6.3,2.2v-3.5l0.4-0.1
		c0,0,1.8-0.6,4.4-0.9c2.6-0.3,5.7,0,8.1,1c2.8,0.9,3.1,2.2,2.4,3c-0.7,0.9-2.4,1.5-2.4,1.5l-12.8,4.6V24z"/>
	<path style="fill:#313131;" d="M2.7,23.6c-2.8-0.8-3.3-2.5-2-3.4c1.2-0.9,3.2-1.6,3.2-1.6l8.4-3v3.4l-6,2.2
		c-1.1,0.4-1.2,0.9-0.4,1.2c0.9,0.3,2.4,0.2,3.5-0.2l2.9-1.1v3c-0.2,0-0.4,0.1-0.6,0.1C8.8,24.8,5.7,24.6,2.7,23.6"/>
	<path style="fill:#313131;" d="M33.8,27.7c0.4,0,0.7-0.1,1-0.4c0.3-0.3,0.4-0.6,0.4-1c0-0.4-0.1-0.7-0.4-1c-0.3-0.3-0.6-0.4-1-0.4
		c-0.8,0-1.4,0.6-1.4,1.4c0,0.4,0.1,0.7,0.4,1C33.1,27.6,33.4,27.7,33.8,27.7z M32.7,26.4c0-0.3,0.1-0.6,0.3-0.8
		c0.2-0.2,0.5-0.3,0.8-0.3c0.3,0,0.6,0.1,0.8,0.3c0.2,0.2,0.3,0.5,0.3,0.8c0,0.6-0.5,1.1-1.1,1.1c-0.3,0-0.6-0.1-0.8-0.3
		C32.8,27,32.7,26.7,32.7,26.4z"/>
	<path style="fill:#313131;" d="M34.5,27C34.5,27,34.5,27,34.5,27c-0.1-0.1-0.1-0.1-0.1-0.2l0-0.2c0-0.1,0-0.2-0.1-0.2
		c0,0-0.1-0.1-0.1-0.1c0,0,0.1-0.1,0.1-0.1c0-0.1,0.1-0.1,0.1-0.2c0-0.2-0.1-0.3-0.2-0.4c-0.1,0-0.2-0.1-0.3-0.1h-0.7h0v0v1.5v0h0
		h0.2h0v0v-0.6h0.4c0.1,0,0.1,0,0.2,0c0.1,0,0.1,0.1,0.1,0.2l0,0.2c0,0.1,0,0.1,0,0.1c0,0,0,0,0,0.1l0,0h0L34.5,27L34.5,27L34.5,27
		L34.5,27L34.5,27L34.5,27z M34.2,26c0,0.1,0,0.1-0.1,0.2c0,0-0.1,0-0.2,0h-0.4v-0.4h0.4c0.1,0,0.1,0,0.1,0
		C34.2,25.9,34.2,25.9,34.2,26z"/>
</svg>
